<?xml version="1.0" encoding="UTF-8" standalone="no"?>
<!-- Created with Inkscape (http://www.inkscape.org/) -->
<svg
   xmlns:dc="http://purl.org/dc/elements/1.1/"
   xmlns:cc="http://creativecommons.org/ns#"
   xmlns:rdf="http://www.w3.org/1999/02/22-rdf-syntax-ns#"
   xmlns:svg="http://www.w3.org/2000/svg"
   xmlns="http://www.w3.org/2000/svg"
   xmlns:sodipodi="http://sodipodi.sourceforge.net/DTD/sodipodi-0.dtd"
   xmlns:inkscape="http://www.inkscape.org/namespaces/inkscape"
   width="210mm"
   height="297mm"
   id="svg2"
   sodipodi:version="0.32"
   inkscape:version="0.46"
   sodipodi:docname="Dbes0107.svg"
   inkscape:output_extension="org.inkscape.output.svg.inkscape">
  <defs
     id="defs4">
    <marker
       inkscape:stockid="Arrow2Lend"
       orient="auto"
       refY="0.0"
       refX="0.0"
       id="Arrow2Lend"
       style="overflow:visible;">
      <path
         id="path3209"
         style="font-size:12.0;fill-rule:evenodd;stroke-width:0.62500000;stroke-linejoin:round;"
         d="M 8.7185878,4.0337352 L -2.2072895,0.016013256 L 8.7185884,-4.0017078 C 6.9730900,-1.6296469 6.9831476,1.6157441 8.7185878,4.0337352 z "
         transform="scale(1.1) rotate(180) translate(1,0)" />
    </marker>
    <marker
       inkscape:stockid="Arrow1Lend"
       orient="auto"
       refY="0.0"
       refX="0.0"
       id="Arrow1Lend"
       style="overflow:visible;">
      <path
         id="path3191"
         d="M 0.0,0.0 L 5.0,-5.0 L -12.5,0.0 L 5.0,5.0 L 0.0,0.0 z "
         style="fill-rule:evenodd;stroke:#000000;stroke-width:1.0pt;marker-start:none;"
         transform="scale(0.8) rotate(180) translate(12.5,0)" />
    </marker>
    <inkscape:perspective
       sodipodi:type="inkscape:persp3d"
       inkscape:vp_x="0 : 526.18109 : 1"
       inkscape:vp_y="0 : 1000 : 0"
       inkscape:vp_z="744.09448 : 526.18109 : 1"
       inkscape:persp3d-origin="372.04724 : 350.78739 : 1"
       id="perspective10" />
  </defs>
  <sodipodi:namedview
     id="base"
     pagecolor="#ffffff"
     bordercolor="#666666"
     borderopacity="1.0"
     inkscape:pageopacity="0.0"
     inkscape:pageshadow="2"
     inkscape:zoom="1.0433593"
     inkscape:cx="319.14023"
     inkscape:cy="805.81997"
     inkscape:document-units="px"
     inkscape:current-layer="layer1"
     showgrid="false"
     inkscape:window-width="1272"
     inkscape:window-height="725"
     inkscape:window-x="1"
     inkscape:window-y="49" />
  <metadata
     id="metadata7">
    <rdf:RDF>
      <cc:Work
         rdf:about="">
        <dc:format>image/svg+xml</dc:format>
        <dc:type
           rdf:resource="http://purl.org/dc/dcmitype/StillImage" />
      </cc:Work>
    </rdf:RDF>
  </metadata>
  <g
     inkscape:label="Capa 1"
     inkscape:groupmode="layer"
     id="layer1">
    <rect
       style="opacity:1;fill:none;fill-opacity:1;stroke:none;stroke-width:1.41700000000000004;stroke-linejoin:round;stroke-miterlimit:4;stroke-dasharray:none;stroke-dashoffset:0;stroke-opacity:1"
       id="rect2383"
       width="641.94092"
       height="347.27951"
       x="56.827557"
       y="71.560631" />
    <path
       sodipodi:type="arc"
       style="fill:#a0a0a0;fill-rule:evenodd;stroke:#000000;stroke-width:1px;stroke-linecap:butt;stroke-linejoin:miter;stroke-opacity:1;fill-opacity:0.42436972"
       id="path3155"
       sodipodi:cx="198.89645"
       sodipodi:cy="176.79684"
       sodipodi:rx="104.18385"
       sodipodi:ry="69.455902"
       d="M 303.08031,176.79684 A 104.18385,69.455902 0 1 1 94.712601,176.79684 A 104.18385,69.455902 0 1 1 303.08031,176.79684 z" />
    <path
       style="fill:none;fill-rule:evenodd;stroke:#000000;stroke-width:1px;stroke-linecap:butt;stroke-linejoin:miter;stroke-opacity:1"
       d="M 162.06378,208.36771 C 162.06378,209.06929 162.06378,209.77086 162.06378,208.36771 z"
       id="path3177" />
    <path
       style="fill:none;fill-rule:evenodd;stroke:#000000;stroke-width:1px;stroke-linecap:butt;stroke-linejoin:miter;stroke-opacity:1;marker-end:url(#Arrow2Lend)"
       d="M 274.7423,161.6302 C 340.47175,115.51622 390.90909,115.48785 463.64973,159.06665"
       id="path3183"
       sodipodi:nodetypes="cc" />
    <path
       sodipodi:type="arc"
       style="fill:#bababa;fill-opacity:1;fill-rule:evenodd;stroke:#000000;stroke-width:1px;stroke-linecap:butt;stroke-linejoin:miter;stroke-opacity:1"
       id="path5039"
       sodipodi:cx="189.42519"
       sodipodi:cy="331.49408"
       sodipodi:rx="37.88504"
       sodipodi:ry="30.518503"
       d="M 227.31023,331.49408 A 37.88504,30.518503 0 1 1 151.54015,331.49408 A 37.88504,30.518503 0 1 1 227.31023,331.49408 z"
       transform="translate(-2,-4)" />
    <path
       style="fill:#4b4b4b;fill-opacity:1;fill-rule:evenodd;stroke:#000000;stroke-width:0.70866143999999998;stroke-linejoin:round;stroke-miterlimit:4;stroke-dashoffset:0;stroke-opacity:1"
       d="M 145.64395,210.24651 L 156.35889,219.37406 L 163.10535,209.45281 C 155.1411,233.6196 156.96388,267.9517 171.04235,293.18817 L 178.97935,292.39446 L 179.37619,316.99916 L 155.96205,295.56926 L 164.69275,294.37872 C 147.67269,268.11306 143.67705,239.67666 145.64395,210.24651 z"
       id="rect5036"
       sodipodi:nodetypes="ccccccccc" />
    <path
       style="fill:none;fill-rule:evenodd;stroke:#000000;stroke-width:1px;stroke-linecap:butt;stroke-linejoin:miter;stroke-opacity:1;marker-end:url(#Arrow1Lend)"
       d="M 214.83763,339.39943 C 313.11103,376.08286 401.72671,355.05997 470.33854,339.39943"
       id="path5061"
       sodipodi:nodetypes="cc" />
    <path
       style="fill:#bababa;fill-opacity:1;fill-rule:evenodd;stroke:#000000;stroke-width:0.70866144;stroke-linejoin:round;stroke-miterlimit:4;stroke-dashoffset:0;stroke-opacity:1"
       d="M 479.55297,203.71482 L 488.97588,181.15151 L 499.41537,202.89673 L 492.04266,202.16088 L 498.58026,307.94353 L 489.51324,297.34665 L 481.84277,308.522 L 486.78532,202.06163 L 479.55297,203.71482 z"
       id="rect5604"
       sodipodi:nodetypes="ccccccccc" />
    <path
       sodipodi:type="arc"
       style="opacity:1;fill:none;fill-opacity:1;fill-rule:evenodd;stroke:#f50000;stroke-width:4.37275505;stroke-miterlimit:4;stroke-dasharray:none;stroke-dashoffset:0;stroke-opacity:1"
       id="path3275"
       sodipodi:cx="-153.35081"
       sodipodi:cy="260.6886"
       sodipodi:rx="66.132538"
       sodipodi:ry="103.5118"
       d="M -87.218277,260.6886 A 66.132538,103.5118 0 1 1 -219.48335,260.6886 A 66.132538,103.5118 0 1 1 -87.218277,260.6886 z"
       transform="matrix(0.8439333,0,0.2572865,1.1203704,231.51131,-34.254509)" />
    <path
       sodipodi:type="arc"
       style="opacity:1;fill:none;fill-opacity:1;fill-rule:evenodd;stroke:#5000fc;stroke-width:4.32978773;stroke-miterlimit:4;stroke-dasharray:none;stroke-dashoffset:0;stroke-opacity:1"
       id="path3277"
       sodipodi:cx="326.3497"
       sodipodi:cy="359.88739"
       sodipodi:rx="213.25348"
       sodipodi:ry="55.110451"
       d="M 539.60318,359.88739 A 213.25348,55.110451 0 1 1 113.09622,359.88739 A 213.25348,55.110451 0 1 1 539.60318,359.88739 z"
       transform="matrix(0.8943821,6.667256e-2,0,1.0782609,34.947617,-67.654858)" />
    <path
       sodipodi:type="arc"
       style="opacity:1;fill:none;fill-opacity:1;fill-rule:evenodd;stroke:#00ff00;stroke-width:4.25196838;stroke-miterlimit:4;stroke-dasharray:none;stroke-dashoffset:0;stroke-opacity:1"
       id="path3281"
       sodipodi:cx="285.61591"
       sodipodi:cy="430.33295"
       sodipodi:rx="0"
       sodipodi:ry="1.9168853"
       d="M 285.61591,430.33295 A 0,1.9168853 0 1 1 285.61591,430.33295 A 0,1.9168853 0 1 1 285.61591,430.33295 z" />
  </g>
</svg>
